<?xml version="1.0" standalone="no"?>
<!DOCTYPE svg PUBLIC "-//W3C//DTD SVG 20010904//EN"
 "http://www.w3.org/TR/2001/REC-SVG-20010904/DTD/svg10.dtd">
<svg version="1.0" xmlns="http://www.w3.org/2000/svg"
 width="192.000000pt" height="192.000000pt" viewBox="0 0 192.000000 192.000000"
 preserveAspectRatio="xMidYMid meet">

<g transform="translate(0.000000,192.000000) scale(0.100000,-0.100000)"
fill="#000000" stroke="none">
<path d="M748 1579 c-24 -13 -23 -46 2 -61 16 -10 20 -24 20 -65 l0 -53 45 0
46 0 -3 -61 -3 -62 -42 -12 -43 -13 0 39 0 39 -55 0 -55 0 0 39 c0 25 5 41 15
45 8 3 15 17 15 31 0 34 -39 53 -75 37 -28 -13 -35 -56 -11 -69 8 -5 16 -27
18 -53 l3 -45 58 -3 57 -3 0 -38 c0 -46 -17 -63 -66 -67 -19 -1 -51 -14 -70
-29 -44 -34 -58 -29 -58 21 l-1 39 -59 3 c-34 2 -65 9 -73 18 -20 20 -57 17
-78 -6 -21 -23 -14 -46 19 -62 20 -9 30 -8 50 6 14 9 45 16 71 16 l45 0 0 -40
c0 -23 5 -40 11 -40 20 0 99 -54 99 -67 0 -18 -18 -16 -48 6 -59 41 -98 38
-133 -10 -29 -41 -39 -92 -28 -134 13 -45 35 -56 96 -49 38 5 52 3 62 -10 12
-14 9 -16 -27 -16 -42 0 -56 -8 -44 -26 17 -27 63 -38 174 -42 l116 -4 15 28
c20 38 46 61 80 69 39 10 36 -19 -3 -35 -35 -14 -47 -48 -30 -80 15 -29 79
-56 159 -69 86 -14 111 -7 111 29 0 37 -37 66 -95 74 -45 7 -58 21 -31 32 8 3
40 -1 70 -10 64 -19 96 -53 96 -103 l0 -34 60 2 c100 4 68 -15 -42 -25 -62 -6
-129 -5 -170 0 -60 9 -68 8 -68 -6 0 -25 37 -54 126 -98 45 -23 91 -53 102
-69 16 -23 22 -25 35 -15 22 18 10 47 -34 87 -43 39 -43 40 12 24 73 -22 169
36 169 101 0 16 7 30 15 34 22 8 18 29 -10 56 -20 19 -31 22 -64 16 -55 -9
-60 9 -9 32 24 11 54 31 67 46 24 25 51 35 51 17 0 -4 -9 -20 -21 -35 -20 -26
-20 -28 -4 -46 27 -30 72 -26 106 11 29 31 46 86 35 114 -13 35 -118 47 -183
20 -47 -20 -66 -4 -28 21 18 11 53 20 94 22 36 2 70 8 75 12 4 4 5 22 1 40 -5
23 -16 35 -37 44 -28 12 -34 11 -81 -21 -37 -25 -53 -31 -61 -22 -8 8 -6 14 8
23 59 36 66 46 66 97 l0 49 39 0 c22 0 52 -7 68 -16 38 -22 83 -6 83 30 0 41
-64 63 -90 31 -8 -10 -31 -15 -71 -15 -52 0 -59 -2 -59 -20 0 -24 3 -24 -54 1
-33 14 -64 19 -106 18 -34 -1 -65 2 -71 8 -6 6 -9 30 -7 54 l3 44 58 3 57 3 0
41 c0 29 7 49 21 64 25 27 20 50 -15 66 -51 23 -104 -46 -55 -72 15 -9 19 -19
17 -43 -3 -31 -4 -32 -60 -35 l-58 -3 0 -49 c0 -51 -7 -58 -44 -44 -26 10 -22
125 4 149 26 23 26 51 -1 65 -28 16 -59 9 -76 -17 -13 -19 -12 -24 6 -42 17
-17 21 -34 21 -81 l0 -60 -50 0 -50 0 0 64 0 65 -42 3 c-43 3 -43 3 -46 46 -2
24 1 42 7 42 6 0 15 9 21 21 22 41 -37 75 -82 48z m52 -24 c10 -12 9 -16 -5
-21 -19 -8 -40 9 -31 25 10 15 21 14 36 -4z m433 -62 c11 -10 -13 -32 -29 -26
-20 8 -17 33 4 33 10 0 22 -3 25 -7z m-205 -36 c2 -12 -3 -17 -17 -17 -12 0
-21 6 -21 13 0 31 32 34 38 4z m-368 -12 c0 -8 -9 -15 -20 -15 -11 0 -20 7
-20 15 0 8 9 15 20 15 11 0 20 -7 20 -15z m-262 -217 c-3 -7 -13 -13 -23 -13
-10 0 -20 6 -22 13 -3 7 5 12 22 12 17 0 25 -5 23 -12z m1142 -3 c0 -16 -35
-21 -44 -6 -8 12 4 21 26 21 10 0 18 -7 18 -15z m-507 -12 c4 -3 -2 -17 -14
-29 l-22 -23 30 -29 c20 -21 47 -33 87 -42 54 -11 59 -10 81 10 13 12 31 20
42 18 15 -3 12 -9 -19 -41 -30 -29 -38 -46 -38 -73 0 -28 -3 -35 -17 -32 -14
3 -17 12 -15 46 3 41 2 42 -26 42 -16 0 -56 13 -88 30 -32 16 -70 30 -84 30
-70 0 -156 48 -131 73 8 8 17 4 35 -12 13 -12 42 -25 64 -28 37 -5 42 -3 56
25 18 35 44 51 59 35z m-287 -70 c-10 -10 -19 5 -10 18 6 11 8 11 12 0 2 -7 1
-15 -2 -18z m514 17 c0 -5 -4 -10 -10 -10 -5 0 -10 5 -10 10 0 6 5 10 10 10 6
0 10 -4 10 -10z m-370 -80 c50 -14 67 -27 54 -40 -7 -7 -23 -5 -53 7 -44 17
-45 17 -153 -14 -12 -4 -18 0 -18 11 0 10 17 21 48 30 57 18 77 19 122 6z
m170 -86 c0 -68 43 -104 125 -104 33 0 45 -4 43 -12 -10 -30 -109 -19 -163 18
-25 16 -50 24 -80 24 -48 0 -95 14 -95 29 0 5 28 9 63 8 59 -2 62 -1 65 23 5
40 10 50 27 50 11 0 15 -10 15 -36z m-480 -24 c28 -11 72 -20 98 -20 28 0 62
8 85 20 44 24 57 25 57 6 0 -8 -20 -23 -45 -35 -42 -20 -44 -23 -42 -58 1 -28
-2 -38 -13 -38 -8 0 -17 11 -18 25 -5 36 -20 50 -52 50 -54 0 -146 42 -134 61
7 12 6 12 64 -11z"/>
</g>
</svg>
